<?xml version="1.0" standalone="no"?>
<!DOCTYPE svg PUBLIC "-//W3C//DTD SVG 20010904//EN"
 "http://www.w3.org/TR/2001/REC-SVG-20010904/DTD/svg10.dtd">
<svg version="1.0" xmlns="http://www.w3.org/2000/svg"
 width="600.000000pt" height="600.000000pt" viewBox="0 0 600.000000 600.000000"
 preserveAspectRatio="xMidYMid meet">
<metadata>
Created by potrace 1.11, written by Peter Selinger 2001-2013
</metadata>
<g transform="translate(0.000000,600.000000) scale(0.100000,-0.100000)"
fill="#000000" stroke="none">
<path d="M230 2995 l0 -2775 2770 0 2770 0 0 2775 0 2775 -2770 0 -2770 0 0
-2775z m2044 1574 c229 -30 459 -124 677 -279 90 -63 244 -207 287 -267 l22
-31 -201 -206 c-170 -175 -205 -206 -230 -206 -24 0 -50 21 -142 113 -174 174
-337 256 -548 275 -281 25 -536 -65 -731 -260 -397 -395 -328 -1037 146 -1347
159 -103 298 -144 491 -145 204 0 352 46 510 159 60 42 188 170 220 219 14 20
26 26 55 26 37 0 47 -9 237 -205 109 -113 198 -210 198 -214 0 -16 -138 -163
-214 -228 -207 -177 -452 -296 -716 -350 -140 -28 -464 -25 -605 5 -151 33
-267 75 -410 148 -298 152 -518 377 -666 679 -114 234 -150 407 -141 690 4
106 12 209 22 250 122 545 527 972 1067 1129 214 62 427 76 672 45z m3209 -67
l27 -28 0 -224 0 -224 -27 -28 -27 -28 -628 0 -628 0 0 -275 0 -275 618 0 618
0 27 -28 27 -28 0 -214 0 -214 -27 -28 -27 -28 -618 0 -618 0 0 -587 0 -587
-27 -28 -27 -28 -265 0 c-258 0 -265 1 -288 22 l-23 21 0 1396 0 1395 22 23
21 23 922 0 921 0 27 -28z"/>
</g>
</svg>
